#!OML:ASF E:/inclinewalkrobotboard/Project1/Captureday1/Session1/subject1.ASF
:FULLY-SPECIFIED
:DEGREES
113
root 0 0 0 85.62121523529368 -33.18641398318299 -56.10694085905343
lowerback -11.443497340729628 9.710217142821168 14.19402846782875
upperback -20.792222050927023 12.309339970188201 3.1278468647453623
thorax -15.227307691754937 4.232204646936046 -3.7835543395617472
lowerneck -8.945644963617115 11.971446668141887 6.241860817456329
upperneck 10.156716070991859 14.267944965920572 9.163577340021027
head 4.525201607788709 7.722781430725003 2.792454529753353
rclavicle 9.417194979548706E-15 7.874968179476315E-15
rhumerus 33.80570401583888 -50.11129296377075 -14.58724316659989
rradius 19.908729028176097
rwrist 40.378066402178206
rhand 0.5690284469696274 2.324861498048141
rfingers 7.125020000000066
rthumb 26.13611097680586 -25.864875667933767
lclavicle 8.652652997032888E-16 2.063612411614272E-15
lhumerus -7.207284909294908 12.98750024787946 -4.2063649207645355
lradius 20.903854753148984
lwrist -38.931782908379226
lhand 0.5092163696088845 34.351473671934
lfingers 7.125020000000039
lthumb 26.048565507016605 62.48125729981731
rfemur 206.37990704356707 -182.7045837251412 -174.29721007080747
rtibia 56.743952862278825
rfoot 58.32799730097226 -31.03210166676893
rtoes 15.774006427647047
lfemur -54.308013388929815 25.56017668484403 21.30143807690137
ltibia 22.992358608728445
lfoot -66.10333274920936 8.913189230888731
ltoes 60.37166062623737
114
root 0 0 0 85.61943835374991 -33.18573907482799 -56.10560438493046
lowerback -11.44272353130634 9.710312625265239 14.195580189574528
upperback -20.793215641081474 12.309470574120422 3.1284536087785937
thorax -15.22882419179533 4.232047202797301 -3.783464295885352
lowerneck -8.944378243020745 11.971900004688818 6.241518871432121
upperneck 10.156434723723992 14.268641062386688 9.16493727292053
head 4.5247774910238245 7.723125850167339 2.7928997904385247
rclavicle 9.428766618885589E-15 7.880293954860378E-15
rhumerus 33.778704527114236 -50.11412378524475 -14.557619900265323
rradius 19.909271182933637
rwrist 40.38054698222131
rhand 0.5674482789318454 2.3254452401079053
rfingers 7.125020000000066
rthumb 26.134615885672826 -25.864785581728732
lclavicle 8.718078612318922E-16 2.0708863266894047E-15
lhumerus -7.229479064396454 12.988427899603401 -4.19696560657939
lradius 20.903271812896378
lwrist -38.93612615521387
lhand 0.5055486321245175 34.34914264994665
lfingers 7.125020000000039
lthumb 26.045083405829843 62.47957355000176
rfemur 206.37511382293098 -182.7011707469099 -174.2948837979896
rtibia 56.74139743086516
rfoot 58.32197513183151 -31.03624232399479
rtoes 15.774085374037647
lfemur -54.30734198120961 25.561347261297435 21.301889335616877
ltibia 22.992849310518512
lfoot -66.10080721698449 8.912365317326058
ltoes 60.37245684177353
115
root 0 0 0 85.63553751282308 -33.19722476593266 -56.119300500899556
lowerback -11.449829532214405 9.709185562076255 14.180379946361002
upperback -20.781574250187177 12.308106922248012 3.12242105596824
thorax -15.212078737121953 4.233693214915127 -3.7846141226983914
lowerneck -8.958033969615695 11.966282502888678 6.244650238117463
upperneck 10.163763168065076 14.259976489076989 9.150507603746732
head 4.5310290381252925 7.718857534900441 2.7881798391060615
rclavicle 9.407178430106505E-15 7.84619699462666E-15
rhumerus 33.99608047864938 -50.06399016691303 -14.805650784864724
rradius 19.94546133578102
rwrist 40.365945600389466
rhand 0.5756515363453252 2.332535741644869
rfingers 7.125020000000067
rthumb 26.142822608529478 -25.85421089018159
lclavicle 9.002992819674157E-16 2.022615138152777E-15
lhumerus -7.134334236850567 12.972361120359468 -4.233913082773242
lradius 20.926464552227884
lwrist -38.87348537145331
lhand 0.5260000608122779 34.37274855758544
lfingers 7.125020000000039
lthumb 26.064179753222735 62.498783305488644
rfemur 206.41359254873385 -182.7337837337351 -174.3251528833989
rtibia 56.76967216209011
rfoot 58.36202821205167 -30.998454160498973
rtoes 15.755999713676713
lfemur -54.29883638581756 25.548037149117235 21.296206375998786
ltibia 22.976439422768426
lfoot -66.1180111201058 8.901676491747214
ltoes 60.364558934853356
116
root 0 0 0 85.62912663912098 -33.190848479364355 -56.11302164495088
lowerback -11.446827812514796 9.709705409282218 14.187299638645483
upperback -20.78746523605188 12.308649654780634 3.1251492989894554
thorax -15.22020359590379 4.232852317688188 -3.784085301199653
lowerneck -8.95144319251408 11.969145704840505 6.243237539758763
upperneck 10.15877133340711 14.264421274883995 9.157395609097467
head 4.527418749970724 7.721037888842548 2.7904494386122742
rclavicle 9.375798672333281E-15 7.84366599665611E-15
rhumerus 33.88677612234575 -50.09169108096414 -14.697142854237121
rradius 19.919421722396535
rwrist 40.362805768451466
rhand 0.5708745178714971 2.328636295383599
rfingers 7.125020000000066
rthumb 26.137867652401123 -25.859930976059285
lclavicle 8.486417532962479E-16 2.0295887805231388E-15
lhumerus -7.1430192195918 12.979677317920864 -4.233101498439744
lradius 20.910607076955024
lwrist -38.90949889513557
lhand 0.5206014449008955 34.36137452737294
lfingers 7.125020000000039
lthumb 26.05929771994701 62.48879441638531
rfemur 206.39467438529982 -182.71792567275213 -174.3067585352503
rtibia 56.7551724111233
rfoot 58.34773982347744 -31.018789551409448
rtoes 15.766202474280675
lfemur -54.30834483911781 25.554199284610903 21.30005596556088
ltibia 22.98707120099057
lfoot -66.11000195508784 8.911650446492834
ltoes 60.36777467726254
117
root 0 0 0 85.62506171992054 -33.18829975624752 -56.10983126338821
lowerback -11.445152501416842 9.709976648444826 14.190736967176983
upperback -20.790013856454085 12.309010488315892 3.1265526876131604
thorax -15.22395820619651 4.232516821815631 -3.7837698379540035
lowerneck -8.948399836304057 11.970424458832845 6.24256953889864
upperneck 10.157457113926226 14.266373089420373 9.160638858956474
head 4.526167641302936 7.722004157184119 2.7914991101085462
rclavicle 9.404486898191572E-15 7.860217226151931E-15
rhumerus 33.84285366925721 -50.10414485847227 -14.637256820705261
rradius 19.91042701601459
rwrist 40.371580740969634
rhand 0.5700296048295881 2.3258831611383126
rfingers 7.125020000000066
rthumb 26.13704422679348 -25.863293314992212
lclavicle 8.600935871817061E-16 2.0469011236307047E-15
lhumerus -7.174916762142579 12.98450580880986 -4.221859076026632
lradius 20.90555433674708
lwrist -38.922672111979544
lhand 0.5149906225660115 34.355456993044925
lfingers 7.125020000000039
lthumb 26.05402216221647 62.48409851818205
rfemur 206.38625913047724 -182.70938900762513 -174.30067617784601
rtibia 56.748562920817484
rfoot 58.33836815730905 -31.02693398556603
rtoes 15.771655651559792
lfemur -54.3077760455177 25.55778829100984 21.30089367273694
ltibia 22.990383908987866
lfoot -66.10723274517706 8.913605228315808
ltoes 60.370314586407744
